<?xml version="1.0" encoding="UTF-8" standalone="no"?>
<!-- Created with Inkscape (http://www.inkscape.org/) -->

<svg
   xmlns:dc="http://purl.org/dc/elements/1.1/"
   xmlns:cc="http://creativecommons.org/ns#"
   xmlns:rdf="http://www.w3.org/1999/02/22-rdf-syntax-ns#"
   xmlns:svg="http://www.w3.org/2000/svg"
   xmlns="http://www.w3.org/2000/svg"
   xmlns:sodipodi="http://sodipodi.sourceforge.net/DTD/sodipodi-0.dtd"
   xmlns:inkscape="http://www.inkscape.org/namespaces/inkscape"
   width="512"
   height="512"
   viewBox="0 0 512.00001 512.00001"
   id="svg2"
   version="1.1"
   inkscape:version="0.91 r13725"
   sodipodi:docname="logo-groß.svg">
  <defs
     id="defs4">
    <clipPath
       clipPathUnits="userSpaceOnUse"
       id="presentation_clip_path">
      <rect
         id="rect4160"
         height="7077"
         width="9768"
         y="20187"
         x="-1509" />
    </clipPath>
    <clipPath
       clipPathUnits="userSpaceOnUse"
       id="presentation_clip_path-3">
      <rect
         id="rect5688"
         height="7077"
         width="9768"
         y="20187"
         x="-1509" />
    </clipPath>
    <clipPath
       clipPathUnits="userSpaceOnUse"
       id="clipPath4261">
      <rect
         style="color:#000000;clip-rule:nonzero;display:inline;overflow:visible;visibility:visible;opacity:0.5;isolation:auto;mix-blend-mode:normal;color-interpolation:sRGB;color-interpolation-filters:linearRGB;solid-color:#000000;solid-opacity:1;fill:none;fill-opacity:1;fill-rule:nonzero;stroke:none;stroke-width:1;stroke-linecap:butt;stroke-linejoin:miter;stroke-miterlimit:4;stroke-dasharray:none;stroke-dashoffset:0;stroke-opacity:1;color-rendering:auto;image-rendering:auto;shape-rendering:auto;text-rendering:auto;enable-background:accumulate"
         id="rect4264"
         width="341.97018"
         height="247.06563"
         x="-46.974258"
         y="57.143036" />
    </clipPath>
  </defs>
  <sodipodi:namedview
     id="base"
     pagecolor="#ffffff"
     bordercolor="#666666"
     borderopacity="1.0"
     inkscape:pageopacity="0.0"
     inkscape:pageshadow="2"
     inkscape:zoom="1"
     inkscape:cx="359.95217"
     inkscape:cy="230.56633"
     inkscape:document-units="px"
     inkscape:current-layer="layer1"
     showgrid="false"
     inkscape:window-width="1920"
     inkscape:window-height="1051"
     inkscape:window-x="0"
     inkscape:window-y="0"
     inkscape:window-maximized="1"
     units="px" />
  <metadata
     id="metadata7">
    <rdf:RDF>
      <cc:Work
         rdf:about="">
        <dc:format>image/svg+xml</dc:format>
        <dc:type
           rdf:resource="http://purl.org/dc/dcmitype/StillImage" />
        <dc:title></dc:title>
      </cc:Work>
    </rdf:RDF>
  </metadata>
  <g
     inkscape:label="Layer 1"
     inkscape:groupmode="layer"
     id="layer1"
     transform="translate(0,-540.36216)">
    <g
       id="g8455"
       transform="matrix(1.3513453,0,0,1.3513453,89.478442,549.67155)"
       clip-path="url(#clipPath4261)">
      <g
         transform="translate(-264.80613,-74.65864)"
         id="g5553">
        <g
           style="fill-rule:evenodd;stroke-width:28.22200012;stroke-linejoin:round"
           id="id9"
           transform="matrix(0.03543307,0,0,0.03543307,265.55624,-579.73367)">
          <rect
             id="rect4249"
             height="971"
             width="1484"
             y="20187"
             x="2128"
             class="BoundingBox"
             style="fill:none;stroke:none" />
          <path
             id="path4251"
             d="m 2128,20672 0,-485 742,0 741,0 0,485 0,485 -741,0 -742,0 0,-485 z"
             inkscape:connector-curvature="0"
             style="fill:#0066ff;stroke:none" />
        </g>
        <g
           style="fill-rule:evenodd;stroke-width:28.22200012;stroke-linejoin:round"
           id="id10"
           transform="matrix(0.03543307,0,0,0.03543307,265.55624,-579.73367)">
          <rect
             id="rect4256"
             height="971"
             width="1541"
             y="20187"
             x="3639"
             class="BoundingBox"
             style="fill:none;stroke:none" />
          <path
             id="path4258"
             d="m 3639,20672 0,-485 770,0 770,0 0,485 0,485 -770,0 -770,0 0,-485 z"
             inkscape:connector-curvature="0"
             style="fill:#0066ff;stroke:none" />
        </g>
        <g
           style="fill-rule:evenodd;stroke-width:28.22200012;stroke-linejoin:round"
           id="id11"
           transform="matrix(0.03543307,0,0,0.03543307,265.55624,-579.73367)">
          <rect
             id="rect4263"
             height="971"
             width="1484"
             y="20187"
             x="5207"
             class="BoundingBox"
             style="fill:none;stroke:none" />
          <path
             id="path4265"
             d="m 5207,20672 0,-485 742,0 741,0 0,485 0,485 -741,0 -742,0 0,-485 z"
             inkscape:connector-curvature="0"
             style="fill:#0066ff;stroke:none" />
        </g>
        <g
           style="fill-rule:evenodd;stroke-width:28.22200012;stroke-linejoin:round"
           id="id12"
           transform="matrix(0.03543307,0,0,0.03543307,265.55624,-579.73367)">
          <rect
             id="rect4270"
             height="971"
             width="1513"
             y="20187"
             x="6747"
             class="BoundingBox"
             style="fill:none;stroke:none" />
          <path
             id="path4272"
             d="m 6747,20672 0,-485 756,0 756,0 0,485 0,485 -756,0 -756,0 0,-485 z"
             inkscape:connector-curvature="0"
             style="fill:#0066ff;stroke:none" />
        </g>
        <g
           style="fill-rule:evenodd;stroke-width:28.22200012;stroke-linejoin:round"
           id="id13"
           transform="matrix(0.03543307,0,0,0.03543307,265.55624,-579.73367)">
          <rect
             id="rect4277"
             height="971"
             width="1513"
             y="20187"
             x="560"
             class="BoundingBox"
             style="fill:none;stroke:none" />
          <path
             id="path4279"
             d="m 560,20672 0,-485 756,0 756,0 0,485 0,485 -756,0 -756,0 0,-485 z"
             inkscape:connector-curvature="0"
             style="fill:#0066ff;stroke:none" />
        </g>
        <g
           style="fill-rule:evenodd;stroke-width:28.22200012;stroke-linejoin:round"
           id="id14"
           transform="matrix(0.03543307,0,0,0.03543307,265.55624,-579.73367)">
          <rect
             id="rect4284"
             height="1085"
             width="1513"
             y="21213"
             x="560"
             class="BoundingBox"
             style="fill:none;stroke:none" />
          <path
             id="path4286"
             d="m 560,21755 0,-542 756,0 756,0 0,542 0,542 -756,0 -756,0 0,-542 z"
             inkscape:connector-curvature="0"
             style="fill:#87aade;stroke:none" />
        </g>
        <g
           style="fill-rule:evenodd;stroke-width:28.22200012;stroke-linejoin:round"
           id="id15"
           transform="matrix(0.03543307,0,0,0.03543307,265.55624,-579.73367)">
          <rect
             id="rect4291"
             height="1085"
             width="1484"
             y="21213"
             x="2128"
             class="BoundingBox"
             style="fill:none;stroke:none" />
          <path
             id="path4293"
             d="m 2128,21755 0,-542 742,0 741,0 0,542 0,542 -741,0 -742,0 0,-542 z"
             inkscape:connector-curvature="0"
             style="fill:#87aade;stroke:none" />
        </g>
        <g
           style="fill-rule:evenodd;stroke-width:28.22200012;stroke-linejoin:round"
           id="id16"
           transform="matrix(0.03543307,0,0,0.03543307,265.55624,-579.73367)">
          <rect
             id="rect4298"
             height="1085"
             width="1541"
             y="21213"
             x="3639"
             class="BoundingBox"
             style="fill:none;stroke:none" />
          <path
             id="path4300"
             d="m 3639,21755 0,-542 770,0 770,0 0,542 0,542 -770,0 -770,0 0,-542 z"
             inkscape:connector-curvature="0"
             style="fill:#87aade;stroke:none" />
        </g>
        <g
           style="fill-rule:evenodd;stroke-width:28.22200012;stroke-linejoin:round"
           id="id17"
           transform="matrix(0.03543307,0,0,0.03543307,265.55624,-579.73367)">
          <rect
             id="rect4305"
             height="1085"
             width="1484"
             y="21213"
             x="5207"
             class="BoundingBox"
             style="fill:none;stroke:none" />
          <path
             id="path4307"
             d="m 5207,21755 0,-542 742,0 741,0 0,542 0,542 -741,0 -742,0 0,-542 z"
             inkscape:connector-curvature="0"
             style="fill:#87aade;stroke:none" />
        </g>
        <g
           style="fill-rule:evenodd;stroke-width:28.22200012;stroke-linejoin:round"
           id="id18"
           transform="matrix(0.03543307,0,0,0.03543307,265.55624,-579.73367)">
          <rect
             id="rect4312"
             height="1085"
             width="1513"
             y="21213"
             x="6747"
             class="BoundingBox"
             style="fill:none;stroke:none" />
          <path
             id="path4314"
             d="m 6747,21755 0,-542 756,0 756,0 0,542 0,542 -756,0 -756,0 0,-542 z"
             inkscape:connector-curvature="0"
             style="fill:#87aade;stroke:none" />
        </g>
        <g
           style="fill-rule:evenodd;stroke-width:28.22200012;stroke-linejoin:round"
           id="id19"
           transform="matrix(0.03543307,0,0,0.03543307,265.55624,-579.73367)">
          <rect
             id="rect4319"
             height="1085"
             width="1513"
             y="22354"
             x="560"
             class="BoundingBox"
             style="fill:none;stroke:none" />
          <path
             id="path4321"
             d="m 1451,23325 c -40,-70 -79,-107 -103,-98 -21,8 -46,-4 -55,-27 -25,-65 -211,-79 -483,-37 l -250,38 0,-424 0,-423 756,0 756,0 0,542 0,542 -278,0 -278,0 -65,-113 z"
             inkscape:connector-curvature="0"
             style="fill:#afc6e9;stroke:none" />
        </g>
        <g
           style="fill-rule:evenodd;stroke-width:28.22200012;stroke-linejoin:round"
           id="id20"
           transform="matrix(0.03543307,0,0,0.03543307,265.55624,-579.73367)">
          <rect
             id="rect4326"
             height="1085"
             width="1484"
             y="22354"
             x="2128"
             class="BoundingBox"
             style="fill:none;stroke:none" />
          <path
             id="path4328"
             d="m 2128,22896 0,-542 742,0 741,0 0,542 0,542 -741,0 -742,0 0,-542 z"
             inkscape:connector-curvature="0"
             style="fill:#afc6e9;stroke:none" />
        </g>
        <g
           style="fill-rule:evenodd;stroke-width:28.22200012;stroke-linejoin:round"
           id="id21"
           transform="matrix(0.03543307,0,0,0.03543307,265.55624,-579.73367)">
          <rect
             id="rect4333"
             height="1085"
             width="1541"
             y="22354"
             x="3639"
             class="BoundingBox"
             style="fill:none;stroke:none" />
          <path
             id="path4335"
             d="m 3639,22896 0,-542 770,0 770,0 0,542 0,542 -770,0 -770,0 0,-542 z"
             inkscape:connector-curvature="0"
             style="fill:#afc6e9;stroke:none" />
        </g>
        <g
           style="fill-rule:evenodd;stroke-width:28.22200012;stroke-linejoin:round"
           id="id22"
           transform="matrix(0.03543307,0,0,0.03543307,265.55624,-579.73367)">
          <rect
             id="rect4340"
             height="1085"
             width="1484"
             y="22354"
             x="5207"
             class="BoundingBox"
             style="fill:none;stroke:none" />
          <path
             id="path4342"
             d="m 5207,22896 0,-542 742,0 741,0 0,542 0,542 -741,0 -742,0 0,-542 z"
             inkscape:connector-curvature="0"
             style="fill:#afc6e9;stroke:none" />
        </g>
        <g
           style="fill-rule:evenodd;stroke-width:28.22200012;stroke-linejoin:round"
           id="id23"
           transform="matrix(0.03543307,0,0,0.03543307,265.55624,-579.73367)">
          <rect
             id="rect4347"
             height="1085"
             width="1513"
             y="22354"
             x="6747"
             class="BoundingBox"
             style="fill:none;stroke:none" />
          <path
             id="path4349"
             d="m 6747,22896 0,-542 756,0 756,0 0,542 0,542 -756,0 -756,0 0,-542 z"
             inkscape:connector-curvature="0"
             style="fill:#87aade;stroke:none" />
        </g>
        <g
           style="fill-rule:evenodd;stroke-width:28.22200012;stroke-linejoin:round"
           id="id24"
           transform="matrix(0.03543307,0,0,0.03543307,265.55624,-579.73367)">
          <rect
             id="rect4354"
             height="815"
             width="506"
             y="23497"
             x="1564"
             class="BoundingBox"
             style="fill:none;stroke:none" />
          <path
             id="path4356"
             d="m 1811,23909 -247,-401 243,-9 c 134,-4 249,-3 255,4 7,6 8,190 4,409 l -8,398 -247,-401 z"
             inkscape:connector-curvature="0"
             style="fill:#87aade;stroke:none" />
        </g>
        <g
           style="fill-rule:evenodd;stroke-width:28.22200012;stroke-linejoin:round"
           id="id25"
           transform="matrix(0.03543307,0,0,0.03543307,265.55624,-579.73367)">
          <rect
             id="rect4361"
             height="1057"
             width="1484"
             y="23494"
             x="2128"
             class="BoundingBox"
             style="fill:none;stroke:none" />
          <path
             id="path4363"
             d="m 2161,24477 c -21,-45 -33,-243 -33,-528 l 0,-455 742,0 741,0 0,528 0,528 -708,0 -709,0 -33,-73 z"
             inkscape:connector-curvature="0"
             style="fill:#87aade;stroke:none" />
        </g>
        <g
           style="fill-rule:evenodd;stroke-width:28.22200012;stroke-linejoin:round"
           id="id26"
           transform="matrix(0.03543307,0,0,0.03543307,265.55624,-579.73367)">
          <rect
             id="rect4368"
             height="1057"
             width="1541"
             y="23494"
             x="3639"
             class="BoundingBox"
             style="fill:none;stroke:none" />
          <path
             id="path4370"
             d="m 3639,24022 0,-528 770,0 770,0 0,528 0,528 -770,0 -770,0 0,-528 z"
             inkscape:connector-curvature="0"
             style="fill:#87aade;stroke:none" />
        </g>
        <g
           style="fill-rule:evenodd;stroke-width:28.22200012;stroke-linejoin:round"
           id="id27"
           transform="matrix(0.03543307,0,0,0.03543307,265.55624,-579.73367)">
          <rect
             id="rect4375"
             height="1057"
             width="1484"
             y="23494"
             x="5207"
             class="BoundingBox"
             style="fill:none;stroke:none" />
          <path
             id="path4377"
             d="m 5207,24022 0,-528 742,0 741,0 0,528 0,528 -741,0 -742,0 0,-528 z"
             inkscape:connector-curvature="0"
             style="fill:#87aade;stroke:none" />
        </g>
        <g
           style="fill-rule:evenodd;stroke-width:28.22200012;stroke-linejoin:round"
           id="id28"
           transform="matrix(0.03543307,0,0,0.03543307,265.55624,-579.73367)">
          <rect
             id="rect4382"
             height="1057"
             width="1513"
             y="23494"
             x="6747"
             class="BoundingBox"
             style="fill:none;stroke:none" />
          <path
             id="path4384"
             d="m 6747,24022 0,-528 756,0 756,0 0,528 0,528 -756,0 -756,0 0,-528 z"
             inkscape:connector-curvature="0"
             style="fill:#afc6e9;stroke:none" />
        </g>
        <g
           style="fill-rule:evenodd;stroke-width:28.22200012;stroke-linejoin:round"
           id="id29"
           transform="matrix(0.03543307,0,0,0.03543307,265.55624,-579.73367)">
          <rect
             id="rect4389"
             height="1085"
             width="1513"
             y="22354"
             x="6747"
             class="BoundingBox"
             style="fill:none;stroke:none" />
          <path
             id="path4391"
             d="m 6747,22896 0,-542 756,0 756,0 0,542 0,542 -756,0 -756,0 0,-542 z"
             inkscape:connector-curvature="0"
             style="fill:#afc6e9;stroke:none" />
        </g>
        <g
           style="fill-rule:evenodd;stroke-width:28.22200012;stroke-linejoin:round"
           id="id30"
           transform="matrix(0.03543307,0,0,0.03543307,265.55624,-579.73367)">
          <rect
             id="rect4396"
             height="1086"
             width="1513"
             y="24605"
             x="6747"
             class="BoundingBox"
             style="fill:none;stroke:none" />
          <path
             id="path4398"
             d="m 6747,25148 0,-542 756,0 756,0 0,542 0,542 -756,0 -756,0 0,-542 z"
             inkscape:connector-curvature="0"
             style="fill:#afc6e9;stroke:none" />
        </g>
        <g
           style="fill-rule:evenodd;stroke-width:28.22200012;stroke-linejoin:round"
           id="id31"
           transform="matrix(0.03543307,0,0,0.03543307,265.55624,-579.73367)">
          <rect
             id="rect4403"
             height="1086"
             width="1484"
             y="24605"
             x="5207"
             class="BoundingBox"
             style="fill:none;stroke:none" />
          <path
             id="path4405"
             d="m 5207,25148 0,-542 742,0 741,0 0,542 0,542 -741,0 -742,0 0,-542 z"
             inkscape:connector-curvature="0"
             style="fill:#afc6e9;stroke:none" />
        </g>
        <g
           style="fill-rule:evenodd;stroke-width:28.22200012;stroke-linejoin:round"
           id="id32"
           transform="matrix(0.03543307,0,0,0.03543307,265.55624,-579.73367)">
          <rect
             id="rect4410"
             height="1086"
             width="1541"
             y="24605"
             x="3639"
             class="BoundingBox"
             style="fill:none;stroke:none" />
          <path
             id="path4412"
             d="m 3639,25148 0,-542 770,0 770,0 0,542 0,542 -770,0 -770,0 0,-542 z"
             inkscape:connector-curvature="0"
             style="fill:#afc6e9;stroke:none" />
        </g>
        <g
           style="fill-rule:evenodd;stroke-width:28.22200012;stroke-linejoin:round"
           id="id33"
           transform="matrix(0.03543307,0,0,0.03543307,265.55624,-579.73367)">
          <rect
             id="rect4417"
             height="1086"
             width="1352"
             y="24605"
             x="2260"
             class="BoundingBox"
             style="fill:none;stroke:none" />
          <path
             id="path4419"
             d="m 2594,25186 c -170,-278 -320,-522 -332,-542 -19,-31 104,-38 663,-38 l 686,0 0,542 0,542 -354,0 -354,0 -309,-504 z"
             inkscape:connector-curvature="0"
             style="fill:#afc6e9;stroke:none" />
        </g>
        <g
           style="fill-rule:evenodd;stroke-width:28.22200012;stroke-linejoin:round"
           id="id34"
           transform="matrix(0.03543307,0,0,0.03543307,265.55624,-579.73367)">
          <rect
             id="rect4424"
             height="829"
             width="771"
             y="24862"
             x="560"
             class="BoundingBox"
             style="fill:none;stroke:none" />
          <path
             id="path4426"
             d="m 560,25489 c 0,-199 1,-202 160,-414 89,-117 169,-213 179,-213 10,0 112,186 225,414 l 206,414 -385,0 -385,0 0,-201 z"
             inkscape:connector-curvature="0"
             style="fill:#afc6e9;stroke:none" />
        </g>
        <g
           style="fill-rule:evenodd;stroke-width:28.22200012;stroke-linejoin:round"
           id="id35"
           transform="matrix(0.03543307,0,0,0.03543307,265.55624,-579.73367)">
          <rect
             id="rect4431"
             height="1057"
             width="1513"
             y="23494"
             x="6747"
             class="BoundingBox"
             style="fill:none;stroke:none" />
          <path
             id="path4433"
             d="m 6747,24022 0,-528 756,0 756,0 0,528 0,528 -756,0 -756,0 0,-528 z"
             inkscape:connector-curvature="0"
             style="fill:#87aade;stroke:none" />
        </g>
        <g
           transform="matrix(0.03412265,0,0,0.03543307,216.78549,-579.73367)"
           id="g5523"
           style="fill-rule:evenodd;stroke-width:28.22200012;stroke-linejoin:round">
          <rect
             style="fill:none;stroke:none"
             class="BoundingBox"
             x="3639"
             y="23494"
             width="1541"
             height="1057"
             id="rect5525" />
          <path
             style="fill:#87aade;stroke:none"
             inkscape:connector-curvature="0"
             d="m 3639,24022 0,-528 770,0 770,0 0,528 0,528 -770,0 -770,0 0,-528 z"
             id="path5527" />
        </g>
        <g
           style="fill-rule:evenodd;stroke-width:28.22200012;stroke-linejoin:round"
           id="g5529"
           transform="matrix(0.0347891,0,0,0.03543307,158.80122,-579.73367)">
          <rect
             id="rect5531"
             height="1057"
             width="1541"
             y="23494"
             x="3639"
             class="BoundingBox"
             style="fill:none;stroke:none" />
          <path
             id="path5533"
             d="m 3639,24022 0,-528 770,0 770,0 0,528 0,528 -770,0 -770,0 0,-528 z"
             inkscape:connector-curvature="0"
             style="fill:#87aade;stroke:none" />
        </g>
        <g
           transform="matrix(0.03612534,0,0,0.03543307,208.52404,-579.73367)"
           id="g5535"
           style="fill-rule:evenodd;stroke-width:28.22200012;stroke-linejoin:round">
          <rect
             style="fill:none;stroke:none"
             class="BoundingBox"
             x="2128"
             y="22354"
             width="1484"
             height="1085"
             id="rect5537" />
          <path
             style="fill:#afc6e9;stroke:none"
             inkscape:connector-curvature="0"
             d="m 2128,22896 0,-542 742,0 741,0 0,542 0,542 -741,0 -742,0 0,-542 z"
             id="path5539" />
        </g>
        <g
           transform="matrix(0.03412265,0,0,0.03543307,216.78549,-579.73367)"
           id="g5541"
           style="fill-rule:evenodd;stroke-width:28.22200012;stroke-linejoin:round">
          <rect
             style="fill:none;stroke:none"
             class="BoundingBox"
             x="3639"
             y="24605"
             width="1541"
             height="1086"
             id="rect5543" />
          <path
             style="fill:#afc6e9;stroke:none"
             inkscape:connector-curvature="0"
             d="m 3639,25148 0,-542 770,0 770,0 0,542 0,542 -770,0 -770,0 0,-542 z"
             id="path5545" />
        </g>
        <g
           style="fill-rule:evenodd;stroke-width:28.22200012;stroke-linejoin:round"
           id="g5547"
           transform="matrix(0.0347891,0,0,0.03543307,158.80123,-579.73367)">
          <rect
             id="rect5549"
             height="1086"
             width="1541"
             y="24605"
             x="3639"
             class="BoundingBox"
             style="fill:none;stroke:none" />
          <path
             id="path5551"
             d="m 3639,25148 0,-542 770,0 770,0 0,542 0,542 -770,0 -770,0 0,-542 z"
             inkscape:connector-curvature="0"
             style="fill:#afc6e9;stroke:none" />
        </g>
      </g>
      <g
         transform="translate(-222.03153,-237.94143)"
         id="g8430">
        <g
           id="g8406">
          <g
             id="g8383">
            <g
               id="g8361">
              <g
                 id="g8340">
                <g
                   id="g8320">
                  <rect
                     transform="matrix(0.9070034,0.42112329,-0.44137654,0.89732199,0,0)"
                     style="fill:none;fill-rule:evenodd;stroke:none;stroke-width:28.22200012;stroke-linejoin:round"
                     class="BoundingBox"
                     x="382.79276"
                     y="257.63354"
                     width="104.02847"
                     height="128.76059"
                     id="rect7615" />
                  <rect
                     transform="matrix(0.9070034,0.42112329,-0.44137654,0.89732199,0,0)"
                     style="fill:none;fill-rule:evenodd;stroke:none;stroke-width:28.22200012;stroke-linejoin:round"
                     class="BoundingBox"
                     x="379.58682"
                     y="257.18378"
                     width="103.99576"
                     height="128.76059"
                     id="rect7621" />
                  <path
                     style="fill:#ffffff;fill-opacity:1;fill-rule:evenodd;stroke:none;stroke-width:28.22200012;stroke-linejoin:round"
                     inkscape:connector-curvature="0"
                     d="m 233.01069,469.16666 c -0.74571,-36.29046 -1.30483,-65.97237 -1.18746,-65.98788 0.11737,-0.0155 6.38928,1.80902 13.94992,4.10106 l 13.7887,4.13088 0.15386,1.11071 c 0.64377,4.38809 15.71285,130.28989 15.5813,130.33278 -0.0877,0.0286 -9.32885,-1.69273 -20.53459,-3.84329 l -20.38886,-3.91356 -1.36287,-65.9307 z"
                     id="path7617" />
                  <path
                     style="fill:#ffffff;fill-opacity:1;fill-rule:evenodd;stroke:none;stroke-width:28.22200012;stroke-linejoin:round"
                     inkscape:connector-curvature="0"
                     d="m 230.27177,467.39923 c -0.74572,-36.29046 -1.30484,-65.97239 -1.18746,-65.98789 0.11736,-0.0155 6.38928,1.80902 13.94992,4.10106 l 13.7887,4.13087 0.15385,1.11072 c 0.64378,4.38808 15.71286,130.28988 15.58131,130.33278 -0.0877,0.0286 -9.32885,-1.69273 -20.53461,-3.84328 l -20.38886,-3.91358 -1.36285,-65.93068 z"
                     id="path7623" />
                  <rect
                     transform="matrix(0.9070034,0.42112329,-0.44137654,0.89732199,0,0)"
                     id="rect4207"
                     height="117.05508"
                     width="94.571335"
                     y="266.31866"
                     x="388.6828"
                     class="BoundingBox"
                     style="fill:none;fill-rule:evenodd;stroke:none;stroke-width:28.22200012;stroke-linejoin:round" />
                  <path
                     id="path4209"
                     d="m 234.56232,468.93439 c -0.67792,-34.72771 -1.18621,-63.13146 -1.07951,-63.1463 0.1067,-0.0148 5.80844,1.73112 12.68175,3.92446 l 12.53518,3.95299 0.13987,1.06288 c 0.58525,4.19913 14.28441,124.67932 14.16482,124.72037 -0.0797,0.0274 -8.48077,-1.61984 -18.66781,-3.67779 l -18.53533,-3.74503 -1.23897,-63.09158 z"
                     inkscape:connector-curvature="0"
                     style="fill:#5899c2;fill-rule:evenodd;stroke:none;stroke-width:28.22200012;stroke-linejoin:round" />
                  <rect
                     transform="matrix(0.9070034,0.42112329,-0.44137654,0.89732199,0,0)"
                     id="rect4228"
                     height="117.05508"
                     width="94.541595"
                     y="265.90979"
                     x="385.76834"
                     class="BoundingBox"
                     style="fill:none;fill-rule:evenodd;stroke:none;stroke-width:28.22200012;stroke-linejoin:round" />
                  <path
                     id="path4230"
                     d="m 232.07239,467.32763 c -0.67792,-34.72771 -1.18621,-63.13147 -1.07951,-63.14631 0.1067,-0.0148 5.80844,1.73112 12.68175,3.92447 l 12.53518,3.95298 0.13987,1.06289 c 0.58525,4.19912 14.28441,124.67931 14.16482,124.72036 -0.0797,0.0274 -8.48077,-1.61983 -18.66782,-3.67778 l -18.53533,-3.74504 -1.23896,-63.09157 z"
                     inkscape:connector-curvature="0"
                     style="fill:#5899c2;fill-rule:evenodd;stroke:none;stroke-width:28.22200012;stroke-linejoin:round" />
                  <rect
                     transform="matrix(-0.71523545,0.69888358,0.82440138,0.56600562,0,0)"
                     style="fill:none;fill-rule:evenodd;stroke:none;stroke-width:28.22200012;stroke-linejoin:round"
                     class="BoundingBox"
                     x="141.0584"
                     y="384.8671"
                     width="86.307861"
                     height="138.58208"
                     id="rect7629" />
                  <rect
                     transform="matrix(-0.71523545,0.69888358,0.82440138,0.56600562,0,0)"
                     style="fill:none;fill-rule:evenodd;stroke:none;stroke-width:28.22200012;stroke-linejoin:round"
                     class="BoundingBox"
                     x="137.37773"
                     y="384.36172"
                     width="86.307861"
                     height="138.5432"
                     id="rect7635" />
                  <path
                     style="fill:#ffffff;fill-opacity:1;fill-rule:evenodd;stroke:none;stroke-width:28.22200012;stroke-linejoin:round"
                     inkscape:connector-curvature="0"
                     d="m 312.68521,392.47654 c -2.08394,-6.99982 -4.10885,-12.81033 -4.46999,-12.93767 -1.40819,-0.43434 -137.93005,-21.1841 -138.26075,-21.00236 -0.19418,0.0931 4.22413,9.55685 9.74161,21.03652 l 10.06725,20.80328 4.72594,0.19944 c 22.90646,1.02811 121.65441,4.89203 121.78587,4.75191 0.11024,-0.0606 -1.50599,-5.85131 -3.58993,-12.85112 z"
                     id="path7631" />
                  <path
                     style="fill:#ffffff;fill-opacity:1;fill-rule:evenodd;stroke:none;stroke-width:28.22200012;stroke-linejoin:round"
                     inkscape:connector-curvature="0"
                     d="m 311.42042,389.65247 c -2.03358,-7.05673 -4.00955,-12.91449 -4.36199,-13.04286 -1.37417,-0.43788 -134.5975,-21.35635 -134.92022,-21.17315 -0.1895,0.0938 4.12207,9.63456 9.50624,21.20758 l 9.82401,20.97243 4.61176,0.20108 c 22.35302,1.03645 118.71513,4.9318 118.84339,4.79054 0.10759,-0.0611 -1.46959,-5.89888 -3.50319,-12.95562 z"
                     id="path7637" />
                  <g
                     transform="matrix(-0.02442062,0.02340359,0.02913356,0.01961759,-501.13068,-104.24157)"
                     id="id4"
                     style="fill-rule:evenodd;stroke-width:28.22200012;stroke-linejoin:round">
                    <rect
                       style="fill:none;stroke:none"
                       class="BoundingBox"
                       x="-1411"
                       y="23503"
                       width="2298"
                       height="3565"
                       id="rect4214" />
                    <path
                       style="fill:#5899c2;stroke:none"
                       inkscape:connector-curvature="0"
                       d="m -1210,26773 c -114,-162 -204,-302 -201,-311 13,-34 1664.50941,-2941.674 1673.50941,-2944.674 5,-2 190.49059,233.674 344.49059,538.674 l 278,554 -70,92 c -338,447 -1807,2364 -1812,2364 -3,1 -99,-131 -213,-293 z"
                       id="path4216"
                       sodipodi:nodetypes="sccccccs" />
                  </g>
                  <g
                     transform="matrix(-0.02442062,0.02340359,0.02913356,0.01961759,-501.13068,-104.24157)"
                     id="id7"
                     style="fill-rule:evenodd;stroke-width:28.22200012;stroke-linejoin:round">
                    <rect
                       style="fill:none;stroke:none"
                       class="BoundingBox"
                       x="-1509"
                       y="23490"
                       width="2298"
                       height="3564"
                       id="rect4235" />
                    <path
                       style="fill:#5899c2;stroke:none"
                       inkscape:connector-curvature="0"
                       d="m -1308,26759 c -114,-162 -204,-302 -201,-311 13,-34 1652.73869,-2963.676 1661.73869,-2966.676 5,-2 202.26131,255.676 356.26131,560.676 l 278,554 -70,92 c -338,447 -1807,2364 -1812,2364 -3,1 -99,-131 -213,-293 z"
                       id="path4237"
                       sodipodi:nodetypes="sccccccs" />
                  </g>
                </g>
              </g>
            </g>
          </g>
        </g>
      </g>
    </g>
  </g>
</svg>
